<svg xmlns:xlink="http://www.w3.org/1999/xlink" xmlns="http://www.w3.org/2000/svg" version="1.1" viewBox="0 0 120 120" height="120px" width="120px">
    <title>网络不给力</title>
    <defs>
        <rect height="120" width="120" y="0" x="0" id="path-1"></rect>
        <linearGradient id="linearGradient-3" y2="75.2329262%" x2="50.2853474%" y1="1.85392593%" x1="49.4507062%">
            <stop offset="0%" stop-color="#D1D3D8"></stop>
            <stop offset="100%" stop-opacity="0" stop-color="#E5E5E5"></stop>
        </linearGradient>
        <linearGradient id="linearGradient-4" y2="-0.890793048%" x2="50.5279035%" y1="98.7844483%" x1="49.5098039%">
            <stop offset="0%" stop-opacity="0" stop-color="#E5E5E5"></stop>
            <stop offset="12%" stop-opacity="0.03" stop-color="#E3E3E3"></stop>
            <stop offset="28%" stop-opacity="0.13" stop-color="#DCDDDD"></stop>
            <stop offset="46%" stop-opacity="0.29" stop-color="#D2D2D4"></stop>
            <stop offset="66%" stop-opacity="0.51" stop-color="#C3C4C7"></stop>
            <stop offset="87%" stop-opacity="0.79" stop-color="#B1B2B7"></stop>
            <stop offset="100%" stop-color="#A3A5AB"></stop>
        </linearGradient>
        <linearGradient id="linearGradient-5" y2="1.74773984%" x2="50.3128911%" y1="101.498208%" x1="49.6871089%">
            <stop offset="0%" stop-color="#E5E5E5"></stop>
            <stop offset="22%" stop-color="#DFDFE0"></stop>
            <stop offset="51%" stop-color="#CFCFD1"></stop>
            <stop offset="83%" stop-color="#B4B5BA"></stop>
            <stop offset="100%" stop-color="#A3A5AB"></stop>
        </linearGradient>
        <linearGradient id="linearGradient-6" y2="-0.267334881%" x2="49.7641509%" y1="99.4047129%" x1="50.1572327%">
            <stop offset="0%" stop-color="#E5E5E5"></stop>
            <stop offset="22%" stop-color="#DFDFE0"></stop>
            <stop offset="51%" stop-color="#CFCFD1"></stop>
            <stop offset="83%" stop-color="#B4B5BA"></stop>
            <stop offset="100%" stop-color="#A3A5AB"></stop>
        </linearGradient>
        <linearGradient id="linearGradient-7" y2="91.9228656%" x2="83.8508363%" y1="11.1124196%" x1="32.111939%">
            <stop offset="27%" stop-color="#DFE1E6"></stop>
            <stop offset="89%" stop-color="#C4C6CC"></stop>
            <stop offset="100%" stop-color="#B5B7BA"></stop>
        </linearGradient>
        <linearGradient id="linearGradient-8" y2="19.9781728%" x2="85.7758338%" y1="86.6940318%" x1="22.6690806%">
            <stop offset="27%" stop-color="#DFE1E6"></stop>
            <stop offset="89%" stop-color="#C4C6CC"></stop>
            <stop offset="100%" stop-color="#B5B7BA"></stop>
        </linearGradient>
        <linearGradient id="linearGradient-9" y2="25.2577009%" x2="36.9056754%" y1="74.5251161%" x1="63.1653295%">
            <stop offset="27%" stop-color="#DFE1E6"></stop>
            <stop offset="89%" stop-color="#C4C6CC"></stop>
            <stop offset="100%" stop-color="#B5B7BA"></stop>
        </linearGradient>
        <linearGradient id="linearGradient-10" y2="546.841208%" x2="-850.711759%" y1="618.433451%" x1="-943.849478%">
            <stop offset="0%" stop-color="#E5E5E5"></stop>
            <stop offset="20%" stop-color="#E0E0E1"></stop>
            <stop offset="46%" stop-color="#D0D1D6"></stop>
            <stop offset="74%" stop-color="#B7B9C3"></stop>
            <stop offset="74%" stop-color="#B6B8C3"></stop>
            <stop offset="100%" stop-color="#A3A5AB"></stop>
        </linearGradient>
        <linearGradient id="linearGradient-11" y2="-0.0337906013%" x2="50.2289013%" y1="96.4063863%" x1="49.7423695%">
            <stop offset="0%" stop-color="#E5E5E5"></stop>
            <stop offset="27%" stop-color="#DFDFE1"></stop>
            <stop offset="63%" stop-color="#CFD0D5"></stop>
            <stop offset="100%" stop-color="#B6B8C3"></stop>
        </linearGradient>
        <linearGradient id="linearGradient-12" y2="49.990853%" x2="100%" y1="49.990853%" x1="-0.0504540868%">
            <stop offset="0%" stop-color="#FDB65B"></stop>
            <stop offset="100%" stop-color="#FD9357"></stop>
        </linearGradient>
        <linearGradient id="linearGradient-13" y2="9014.94749%" x2="-38194.1768%" y1="9014.94749%" x1="-38253.1859%">
            <stop offset="0%" stop-color="#EDEDED"></stop>
            <stop offset="66%" stop-color="#DCDCDC"></stop>
            <stop offset="100%" stop-color="#DCDCDC"></stop>
        </linearGradient>
        <linearGradient id="linearGradient-14" y2="-4710.65503%" x2="-457.435897%" y1="-4668.19713%" x1="-547.948718%">
            <stop offset="0%" stop-color="#D0D1D7"></stop>
            <stop offset="8%" stop-color="#C1C3C8"></stop>
            <stop offset="18%" stop-color="#B6B8BD"></stop>
            <stop offset="28%" stop-color="#B2B4B9"></stop>
            <stop offset="100%" stop-color="#B2B4B9"></stop>
        </linearGradient>
        <linearGradient id="linearGradient-15" y2="50%" x2="100%" y1="50%" x1="5.99298038e-13%">
            <stop offset="0%" stop-opacity="0.25" stop-color="#E8E8E8"></stop>
            <stop offset="54%" stop-opacity="0.12" stop-color="#E8E8E8"></stop>
            <stop offset="100%" stop-opacity="0.1" stop-color="#E8E8E8"></stop>
        </linearGradient>
        <linearGradient id="linearGradient-16" y2="3.23853631%" x2="61.8636968%" y1="96.3171326%" x1="38.0567525%">
            <stop offset="27%" stop-color="#EAEAEA"></stop>
            <stop offset="77%" stop-color="#CBCDD3"></stop>
            <stop offset="89%" stop-color="#C3C5CD"></stop>
            <stop offset="100%" stop-color="#B2B4B9"></stop>
        </linearGradient>
        <linearGradient id="linearGradient-17" y2="297.247663%" x2="80.195659%" y1="297.247663%" x1="0.629217279%">
            <stop offset="0%" stop-color="#FFFFFF"></stop>
            <stop offset="59%" stop-color="#FAFAFA"></stop>
            <stop offset="80%" stop-color="#F6F6F6"></stop>
            <stop offset="100%" stop-color="#FFFFFF"></stop>
        </linearGradient>
        <linearGradient id="linearGradient-18" y2="49.9846861%" x2="100%" y1="49.9846861%" x1="0%">
            <stop offset="0%" stop-opacity="0.25" stop-color="#808080"></stop>
            <stop offset="54%" stop-opacity="0.12" stop-color="#808080"></stop>
            <stop offset="100%" stop-opacity="0.1" stop-color="#808080"></stop>
        </linearGradient>
        <linearGradient id="linearGradient-19" y2="49.9899031%" x2="100%" y1="49.9899031%" x1="-0.0386398764%">
            <stop offset="0%" stop-opacity="0.25" stop-color="#808080"></stop>
            <stop offset="54%" stop-opacity="0.12" stop-color="#808080"></stop>
            <stop offset="100%" stop-opacity="0.1" stop-color="#808080"></stop>
        </linearGradient>
    </defs>
    <g fill-rule="evenodd" fill="none" stroke-width="1" stroke="none" id="网络不给力">
        <g id="分组-3-copy-2">
            <mask fill="white" id="mask-2">
                <use xlink:href="#path-1"></use>
            </mask>
            <g fill-rule="nonzero" id="Mask"></g>
            <g mask="url(#mask-2)" id="分组-26-copy">
                <g transform="translate(15.000000, 0.000000)">
                    <ellipse ry="38.9388889" rx="38.9875625" cy="80.6388889" cx="39.53825" fill-rule="nonzero" fill="url(#linearGradient-3)" id="椭圆形"></ellipse>
                    <ellipse ry="7.36666667" rx="7.375875" cy="73.8777778" cx="16.0033125" opacity="0.6" fill-rule="nonzero" fill="url(#linearGradient-4)" id="椭圆形"></ellipse>
                    <ellipse ry="4.43888889" rx="4.4444375" cy="58.6444444" cx="25.798875" opacity="0.6" fill-rule="nonzero" fill="url(#linearGradient-5)" id="椭圆形"></ellipse>
                    <ellipse ry="3.53333333" rx="3.53775" cy="72.6666667" cx="60.041625" opacity="0.6" fill-rule="nonzero" fill="url(#linearGradient-6)" id="椭圆形"></ellipse>
                    <path fill-rule="nonzero" fill="url(#linearGradient-7)" id="路径" d="M64.9866875,51.1777778 L69.764875,48.2277778 C69.764875,48.2277778 77.7136875,52.9944444 78.664875,60.6388889 L74.87125,64.2944444 C74.87125,64.2944444 72.2624375,57.4333333 64.9866875,51.1777778 Z"></path>
                    <path fill-rule="nonzero" fill="url(#linearGradient-8)" id="路径" d="M21.348875,47.2 L21.348875,47.2 C21.5350193,53.1573652 17.3915739,58.3800858 11.5421875,59.5611111 L9.3171875,60.0055556 L4.3109375,52.6944444 L15.1911875,42.5111111 L21.348875,47.2 Z"></path>
                    <path fill-rule="nonzero" fill="url(#linearGradient-9)" id="路径" d="M15.296875,42.5055556 C14.184375,41.3111111 10.7078125,42.6277778 7.687375,45.3944444 C4.6669375,48.1611111 3.103875,51.3666667 4.194125,52.5611111 C5.284375,53.7555556 8.644125,52.4722222 11.647875,49.7055556 C14.651625,46.9388889 16.387125,43.6944444 15.296875,42.5055556 Z"></path>
                    <path fill-rule="nonzero" fill="url(#linearGradient-10)" id="路径" d="M13.4556875,44.15 C12.7214375,43.3555556 10.379625,44.2333333 8.3604375,46.0888889 C6.34125,47.9444444 5.284375,50.0944444 6.018625,50.8888889 C6.752875,51.6833333 8.989,50.8333333 11.024875,48.9777778 C13.06075,47.1222222 14.1899375,44.95 13.4556875,44.15 Z"></path>
                    <path fill-rule="nonzero" fill="#B5B7BA" id="路径" d="M19.6968125,53.7388889 C19.6968125,53.7388889 23.173375,45.3388889 30.2655625,42.8166667 C26.8733505,43.6042292 23.614541,44.8825433 20.592375,46.6111111 L21.2765625,47.25 C21.5072775,49.5296682 20.9497992,51.8195334 19.6968125,53.7388889 Z"></path>
                    <ellipse ry="1" rx="1" cy="77.2055556" cx="40.3448125" fill-rule="nonzero" fill="#FFFFFF" id="椭圆形"></ellipse>
                    <ellipse ry="1" rx="1" cy="81.7444444" cx="45.089625" fill-rule="nonzero" fill="#FFFFFF" id="椭圆形"></ellipse>
                    <ellipse ry="1" rx="1" cy="86.9944444" cx="63.067625" fill-rule="nonzero" fill="#FFFFFF" id="椭圆形"></ellipse>
                    <ellipse ry="1" rx="1" cy="81.7444444" cx="49.7343125" fill-rule="nonzero" fill="#FFFFFF" id="椭圆形"></ellipse>
                    <ellipse ry="1" rx="1" cy="84.9722222" cx="42.263875" fill-rule="nonzero" fill="#FFFFFF" id="椭圆形"></ellipse>
                    <ellipse ry="1" rx="1" cy="76.3" cx="46.7083125" fill-rule="nonzero" fill="#FFFFFF" id="椭圆形"></ellipse>
                    <ellipse ry="1" rx="1" cy="86.1833333" cx="56.8098125" fill-rule="nonzero" fill="#FFFFFF" id="椭圆形"></ellipse>
                    <ellipse ry="1" rx="1" cy="85.1777778" cx="59.4353125" fill-rule="nonzero" fill="#FFFFFF" id="椭圆形"></ellipse>
                    <ellipse ry="1" rx="1" cy="86.9944444" cx="59.4353125" fill-rule="nonzero" fill="#FFFFFF" id="椭圆形"></ellipse>
                    <path opacity="0.2" fill-rule="nonzero" fill="#A3A5AB" id="路径" d="M61.6325,56.5611111 C58.3673125,56.8833333 49.7955,57.6722222 43.865875,57.5111111 L35.422,45.9055556 L51.252875,23.5388889 C55.2355816,25.7210471 59.5267539,27.287018 63.979875,28.1833333 L62.978625,55.2944444"></path>
                    <g transform="translate(48.393750, 32.222222)" fill-rule="evenodd" fill="none" stroke-width="1" opacity="0.8" id="编组">
                        <path fill-rule="nonzero" fill="#C6C7CE" id="路径" d="M2.91475,6.18333333 C2.8734001,6.16655457 2.83564005,6.14204118 2.8035,6.11111111 C2.63948861,5.96826585 2.62207628,5.71982886 2.7645625,5.55555556 C3.50777386,4.71067617 4.70037234,4.41964187 5.74994181,4.82702221 C6.79951128,5.23440254 7.4823702,6.25337765 7.4593125,7.37777778 C7.4594101,7.48387123 7.41610406,7.5853988 7.33943192,7.65882824 C7.26275978,7.73225768 7.15937851,7.77121358 7.05325,7.76666667 C6.83116576,7.76060947 6.65518632,7.57742325 6.6583125,7.35555556 C6.66973028,6.57040358 6.19078823,5.86106371 5.4576823,5.57735531 C4.72457638,5.2936469 3.89213041,5.49548603 3.370875,6.08333333 C3.25479752,6.20844576 3.07409208,6.25026426 2.91475,6.18888889 L2.91475,6.18333333 Z"></path>
                        <path fill-rule="nonzero" fill="#C6C7CE" id="路径" d="M1.8300625,4.1 C1.76346357,4.0740159 1.70560253,4.02971115 1.6631875,3.97222222 C1.59647317,3.89041679 1.56590239,3.78504921 1.57848881,3.68029329 C1.59107523,3.57553737 1.64573848,3.48038511 1.7299375,3.41666667 C3.1286957,2.36281766 4.97730472,2.11600917 6.60410093,2.76591527 C8.23089714,3.41582138 9.39911954,4.8678559 9.6843125,6.59444444 C9.71424947,6.81323411 9.56342111,7.01573386 9.345,7.05 C9.12672708,7.07687401 8.92585824,6.92763374 8.888875,6.71111111 C8.66234034,5.25435188 7.68288271,4.0251316 6.31238882,3.47761844 C4.94189492,2.93010527 3.3838347,3.14558558 2.213875,4.04444444 C2.10194808,4.13286853 1.95096436,4.1541073 1.8189375,4.1 L1.8300625,4.1 Z"></path>
                        <path fill-rule="nonzero" fill="#C6C7CE" id="路径" d="M0.73425,2.1 C0.662413379,2.0696665 0.600683641,2.0195737 0.55625,1.95555556 C0.494495027,1.86903441 0.470302074,1.76128881 0.489148948,1.65671467 C0.507995822,1.55214053 0.568288349,1.45958332 0.656375,1.4 C2.65157296,0.0435991489 5.19069037,-0.235452732 7.43345883,0.655190806 C9.67622729,1.54583434 11.330236,3.49005173 11.848125,5.84444444 C11.8711728,5.94766129 11.8517568,6.05579851 11.7942348,6.14458516 C11.7367128,6.2333718 11.6459031,6.29537078 11.5421875,6.31666667 C11.3243328,6.36129293 11.1110669,6.2225955 11.0638125,6.00555556 C10.5949,3.92044877 9.12401593,2.20180237 7.13473114,1.41464215 C5.14544636,0.627481935 2.89513906,0.873652471 1.123625,2.07222222 C1.01311323,2.14979532 0.870895202,2.16650596 0.745375,2.11666667 L0.73425,2.1 Z"></path>
                        <path fill-rule="nonzero" fill="#C6C7CE" id="路径" d="M3.482125,7.48888889 C3.32925733,7.86016513 3.38879814,8.28492574 3.637875,8.6 C3.88976726,8.91904878 4.29153132,9.08166568 4.69475,9.02777778 C5.10046963,8.98231496 5.4486618,8.71855303 5.60188743,8.34060458 C5.75511306,7.96265614 5.68875261,7.5312481 5.429,7.21666667 C5.17887677,6.8985396 4.77919174,6.73590825 4.3776875,6.78888889 C3.97589693,6.83865519 3.63289707,7.10249918 3.482125,7.47777778 L3.482125,7.48888889 Z"></path>
                    </g>
                    <polygon points="49.6890231 30.9802792 58.6517211 30.9841852 58.6570268 43.1694673 49.6943288 43.1655612" transform="translate(54.173025, 37.074873) rotate(-67.890000) translate(-54.173025, -37.074873)" fill="none" id="矩形"></polygon>
                    <ellipse ry="14.8446349" rx="7.06191216" cy="51.7713107" cx="48.7225216" transform="translate(48.722522, 51.771311) rotate(-72.490000) translate(-48.722522, -51.771311)" fill-rule="nonzero" fill="url(#linearGradient-11)" id="椭圆形"></ellipse>
                    <path fill-rule="nonzero" fill="#333333" id="路径" d="M30.6660625,105.727778 L28.76925,107.672222 C28.76925,107.672222 27.779125,108.838889 29.88175,108.45 C29.88175,108.45 32.37375,107.894444 32.0344375,106.738889 L31.7785625,105.727778 L30.6660625,105.727778 Z"></path>
                    <path fill-rule="nonzero" fill="#333333" id="路径" d="M32.6685625,106.761111 L30.716125,108.944444 C30.716125,108.944444 29.637,110.266667 32.073375,109.827778 C32.073375,109.827778 33.7810625,109.15 34.298375,108.061111 C34.298375,108.061111 34.4930625,107.105556 33.9924375,106.638889 L32.6685625,106.761111 Z"></path>
                    <path fill-rule="nonzero" fill="#666666" id="路径" d="M28.090625,88.0222222 C27.6270277,91.5209552 27.5226522,95.0578482 27.779125,98.5777778 C27.7775197,99.1623561 27.8830936,99.742288 28.090625,100.288889 L30.3768125,106 L31.57275,106 L30.5881875,100.188889 C30.5881875,100.188889 30.0319375,97.4111111 30.94975,92.1388889 C30.94975,92.1388889 31.784125,91.3611111 31.8341875,92.5555556 C31.7658589,97.4443683 31.9924777,102.332853 32.5128125,107.194444 L33.942375,107.194444 L35.054875,88.5555556 L28.090625,88.0222222 Z"></path>
                    <path fill-rule="nonzero" fill="#FCD9CB" id="路径" d="M37.190875,77.2722222 L38.436875,78.7277778 C38.436875,78.7277778 38.6426875,79.4555556 39.3213125,78.7277778 L41.919,76.3944444 C41.919,76.3944444 42.542,75.5611111 43.788,76.3944444 L44.7614375,76.9111111 C44.7614375,76.9111111 45.6125,77.4277778 44.0494375,77.2722222 C44.0494375,77.2722222 42.7255625,76.8333333 42.2583125,77.4277778 L39.215625,81.4 C39.0540994,81.582017 38.822242,81.6862069 38.5787188,81.6862069 C38.3351955,81.6862069 38.1033381,81.582017 37.9418125,81.4 L35.8614375,78.7 L37.190875,77.2722222 Z"></path>
                    <path fill-rule="nonzero" fill="#FCD9CB" id="路径" d="M27.2061875,77.9777778 L26.0936875,79.25 C26.0936875,79.25 25.6820625,79.6611111 25.3149375,79.0888889 L23.496,76.8666667 C23.33762,76.5339675 22.9734456,76.3509639 22.6115625,76.4222222 L20.5868125,76.5555556 C20.5868125,76.5555556 19.8303125,76.8388889 21.2098125,77.1111111 C21.8544784,77.1343429 22.4598323,77.4265653 22.8785625,77.9166667 L25.242625,81.3666667 C25.242625,81.3666667 25.798875,82.2222222 26.5164375,81.6 L28.7414375,78.8777778 L27.2061875,77.9777778 Z"></path>
                    <ellipse ry="2.65" rx="2.1860625" cy="70.8888889" cx="31.3001875" fill-rule="nonzero" fill="#FCD9CB" id="椭圆形"></ellipse>
                    <rect height="3.54444444" width="1.724375" y="71.9888889" x="31.3001875" fill-rule="nonzero" fill="#FCD9CB" id="矩形"></rect>
                    <path fill-rule="nonzero" fill="#666666" id="路径" d="M28.090625,68.3722222 C28.090625,68.3722222 28.869375,68.9277778 29.9651875,68.0611111 C30.7917812,67.3735548 31.9334688,67.2042301 32.9244375,67.6222222 C33.7895322,68.2808906 34.2859857,69.3138774 34.2594375,70.4 C34.2303004,71.3188208 33.6377176,72.1248756 32.7686875,72.4277778 C33.1489199,71.9271797 33.3040334,71.2914046 33.197,70.6722222 C33.0394473,70.5151993 32.7899658,70.498588 32.6129375,70.6333333 C32.6129375,70.6333333 33.1246875,68.9666667 31.0165,69.1166667 C31.0165,69.1111111 28.32425,69.9277778 28.090625,68.3722222 Z"></path>
                    <path fill-rule="nonzero" fill="url(#linearGradient-12)" id="路径" d="M30.8996875,74.5222222 C31.2430197,74.8501962 31.710045,75.0164633 32.1836815,74.9793409 C32.6573179,74.9422186 33.0926578,74.7052264 33.3805625,74.3277778 C34.4554162,73.9396925 35.6562903,74.3425535 36.278625,75.3 L37.680375,77.1333333 C37.680375,77.1333333 37.2520625,78.8 36.011625,79.0388889 L35.2718125,78.3777778 L35.522125,88.5722222 C35.5332831,89.0715348 35.1575626,89.4952058 34.6599375,89.5444444 C33.208125,89.6944444 30.271125,89.8333333 28.112875,88.9444444 C27.7133802,88.7809907 27.4705779,88.3730482 27.5176875,87.9444444 L28.5245,79.2333333 L26.6555,77.9111111 L28.32425,75.3 C28.8510362,74.4131243 29.9691373,74.0754596 30.8996875,74.5222222 Z"></path>
                    <path fill-rule="nonzero" fill="url(#linearGradient-13)" id="路径" d="M65.03675,5.45555556 L65.03675,5.45555556 C64.8709224,5.39998823 64.7796328,5.22256543 64.8309375,5.05555556 L65.52625,2.89444444 C65.5547538,2.72253848 65.7149239,2.60440667 65.8878125,2.62777778 L65.8878125,2.62777778 C66.054402,2.68574546 66.1453063,2.86487337 66.093625,3.03333333 L65.403875,5.18888889 C65.3754011,5.36327317 65.2116311,5.48222993 65.03675,5.45555556 Z"></path>
                    <ellipse ry="1.08333333" rx="1.0846875" cy="2.16111111" cx="66.049125" fill-rule="nonzero" fill="url(#linearGradient-14)" id="椭圆形"></ellipse>
                    <g transform="translate(48.950000, 1.666667)" fill-rule="evenodd" fill="none" stroke-width="1" opacity="0.8" id="编组">
                        <ellipse ry="13.6619718" rx="10.572594" cy="14.8160556" cx="16.98209" transform="translate(16.982090, 14.816056) rotate(-69.577667) translate(-16.982090, -14.816056)" fill-rule="nonzero" fill="url(#linearGradient-15)" id="椭圆形"></ellipse>
                    </g>
                    <ellipse ry="13.3146284" rx="10.3071046" cy="14.7645924" cx="62.0302009" transform="translate(62.030201, 14.764592) rotate(-69.720000) translate(-62.030201, -14.764592)" fill-rule="nonzero" fill="url(#linearGradient-16)" id="椭圆形"></ellipse>
                    <path opacity="0.1" fill-rule="nonzero" fill="url(#linearGradient-17)" id="路径" d="M51.186125,12.0722222 C53.1608125,6.73333333 60.3586875,4.47222222 67.2561875,7.01666667 C69.4010583,7.79464343 71.3585958,9.01350139 73.00225,10.5944444 C71.1494477,8.10725257 68.6001723,6.22426516 65.6764375,5.18333333 C58.773375,2.63888889 51.5810625,4.9 49.606375,10.2388889 C48.2769375,13.8222222 49.6453125,17.8833333 52.7714375,20.9333333 C50.8023125,18.1833333 50.1125625,14.9611111 51.186125,12.0722222 Z"></path>
                    <path opacity="0.1" fill-rule="nonzero" fill="#696969" id="路径" d="M75.104875,16.4111111 C75.0377215,17.0948312 74.8825453,17.7670441 74.6431875,18.4111111 C72.6685,23.7444444 65.4761875,26.0111111 58.5786875,23.4611111 C52.9271875,21.3833333 49.228125,16.7222222 49.161375,12.1777778 C48.6663125,17.0222222 52.498875,22.2166667 58.53975,24.45 C65.43725,27 72.6295625,24.7333333 74.60425,19.4 C74.958163,18.444099 75.1280182,17.4300097 75.104875,16.4111111 Z"></path>
                    <g transform="translate(48.950000, 21.666667)" fill-rule="evenodd" fill="none" stroke-width="1" opacity="0.8" id="编组">
                        <polygon points="8.09436099 -4.96747506 9.91130047 -4.96673676 9.91867216 13.1921018 8.10173268 13.1913635" transform="translate(9.006517, 4.112313) rotate(-69.720000) translate(-9.006517, -4.112313)" fill-rule="nonzero" fill="url(#linearGradient-18)" id="矩形"></polygon>
                    </g>
                    <polygon points="57.1486414 16.4186404 58.9655809 16.4193787 58.9729526 34.5782173 57.1560131 34.577479" transform="translate(58.060797, 25.498429) rotate(-69.720000) translate(-58.060797, -25.498429)" fill-rule="nonzero" fill="#DEDEDE" id="矩形"></polygon>
                    <g transform="translate(31.706250, 2.222222)" fill-rule="evenodd" fill="none" stroke-width="1" opacity="0.8" id="编组">
                        <ellipse ry="27.5413686" rx="7.18997734" cy="16.7574727" cx="28.7714531" transform="translate(28.771453, 16.757473) rotate(-69.720000) translate(-28.771453, -16.757473)" fill-rule="nonzero" fill="url(#linearGradient-19)" id="椭圆形"></ellipse>
                    </g>
                    <path fill-rule="nonzero" fill="#FFFFFF" id="路径" d="M62.911875,12.5388889 C49.1113125,7.44444444 36.846,6.23333333 35.5165625,9.83888889 L85.4789375,28.2833333 C86.8139375,24.6777778 76.706875,17.6277778 62.911875,12.5388889 Z"></path>
                    <path fill-rule="nonzero" fill="#FFFFFF" id="路径" d="M58.083625,25.5777778 C71.8841875,30.6722222 84.1495,31.8833333 85.4789375,28.2833333 L35.5165625,9.83888889 C34.1815625,13.4388889 44.288625,20.4888889 58.083625,25.5777778 Z"></path>
                    <path opacity="0.05" fill-rule="nonzero" fill="#040404" id="路径" d="M58.083625,25.5777778 C71.8841875,30.6722222 84.1495,31.8833333 85.4789375,28.2833333 L35.5165625,9.83888889 C34.1815625,13.4388889 44.288625,20.4888889 58.083625,25.5777778 Z"></path>
                    <path transform="translate(60.476058, 18.976127) rotate(-69.720000) translate(-60.476058, -18.976127)" opacity="0.05" fill-rule="nonzero" fill="#040404" id="矩形" d="M60.2567366,6.26485256 L60.6850595,6.26502661 C61.5682069,6.26668567 62.2840501,6.98252914 62.2857089,7.86567662 L62.2947302,30.0880509 C62.296388,30.9717059 61.5803345,31.688341 60.696679,31.6886997 C60.6962457,31.6886999 60.6958125,31.6886999 60.6953798,31.6874006 L60.267057,31.6872265 C59.3839095,31.6855675 58.6680663,30.969724 58.6664076,30.0865765 L58.6573863,7.86420229 C58.6557284,6.98054729 59.371782,6.26391214 60.2554375,6.26355342 C60.2558707,6.26355324 60.2563039,6.26355324 60.2567366,6.26485256 Z"></path>
                </g>
            </g>
        </g>
    </g>
</svg>