<svg xmlns:xlink="http://www.w3.org/1999/xlink" xmlns="http://www.w3.org/2000/svg" version="1.1" viewBox="0 0 120 120" height="120px" width="120px">
    <title>权限不足</title>
    <defs>
        <rect height="120" width="120" y="0" x="0" id="path-1"></rect>
        <linearGradient id="linearGradient-3" y2="-0.0163281676%" x2="50%" y1="100%" x1="50%">
            <stop offset="0%" stop-opacity="0" stop-color="#FFFFFF"></stop>
            <stop offset="9%" stop-opacity="0.19" stop-color="#F9F9FA"></stop>
            <stop offset="22%" stop-opacity="0.4" stop-color="#F2F3F5"></stop>
            <stop offset="34%" stop-opacity="0.59" stop-color="#ECEDF0"></stop>
            <stop offset="47%" stop-opacity="0.74" stop-color="#E7E9ED"></stop>
            <stop offset="59%" stop-opacity="0.85" stop-color="#E4E5EA"></stop>
            <stop offset="72%" stop-opacity="0.93" stop-color="#E1E3E8"></stop>
            <stop offset="86%" stop-opacity="0.98" stop-color="#E0E1E6"></stop>
            <stop offset="100%" stop-color="#DFE1E6"></stop>
        </linearGradient>
        <linearGradient id="linearGradient-4" y2="3.44169138e-13%" x2="50%" y1="100%" x1="49.9999926%">
            <stop offset="0%" stop-opacity="0" stop-color="#FFFFFF"></stop>
            <stop offset="41%" stop-opacity="0.14" stop-color="#FBFBFC"></stop>
            <stop offset="66%" stop-opacity="0.48" stop-color="#F0F1F3"></stop>
            <stop offset="100%" stop-color="#DFE1E6"></stop>
        </linearGradient>
        <linearGradient id="linearGradient-5" y2="115.721209%" x2="47.6693832%" y1="69.2198695%" x1="40.1861449%">
            <stop offset="0%" stop-color="#E9EBF0"></stop>
            <stop offset="100%" stop-color="#D1D3D8"></stop>
        </linearGradient>
        <linearGradient id="linearGradient-6" y2="49.9812813%" x2="17.8598973%" y1="49.9812813%" x1="-7.21383168%">
            <stop offset="27%" stop-color="#DFE1E6"></stop>
            <stop offset="89%" stop-color="#D1D3D8"></stop>
            <stop offset="100%" stop-color="#C4C6CC"></stop>
        </linearGradient>
        <linearGradient id="linearGradient-7" y2="99.6845426%" x2="90.2461576%" y1="11.6904806%" x1="8.29348805%">
            <stop offset="27%" stop-color="#E9EBF0"></stop>
            <stop offset="89%" stop-color="#D1D3D8"></stop>
            <stop offset="100%" stop-color="#C4C6CC"></stop>
        </linearGradient>
        <linearGradient id="linearGradient-8" y2="99.9253076%" x2="49.7165533%" y1="8.99105043e-13%" x1="49.7165533%">
            <stop offset="0%" stop-color="#FDB65B"></stop>
            <stop offset="100%" stop-color="#FD9357"></stop>
        </linearGradient>
    </defs>
    <g fill-rule="evenodd" fill="none" stroke-width="1" stroke="none" id="权限不足">
        <g id="分组-copy-2">
            <mask fill="white" id="mask-2">
                <use xlink:href="#path-1"></use>
            </mask>
            <g fill-rule="nonzero" id="Mask"></g>
            <g mask="url(#mask-2)" id="分组-15-copy">
                <g transform="translate(0.000000, 13.000000)">
                    <path fill-rule="nonzero" fill="url(#linearGradient-3)" id="路径" d="M92,72.8043624 C92,72.8043624 97.6050698,58.9455919 103.015717,67.5178317 C103.015717,67.5178317 104.94572,70.4669098 106.686042,65.8394175 C106.686042,65.8394175 112.85067,46.5281715 119.247658,72.8043624 L92,72.8043624 Z"></path>
                    <ellipse ry="24" rx="60" cy="103" cx="60" fill-rule="nonzero" fill="url(#linearGradient-4)" id="椭圆形"></ellipse>
                    <g transform="translate(15.000000, 0.000000)" fill-rule="evenodd" fill="none" stroke-width="1" id="分组-38">
                        <path fill-rule="nonzero" fill="url(#linearGradient-5)" id="路径" d="M44.2815883,0.95873167 C32.4308531,-1.35219958 22.8197575,6.40632261 22.8197575,18.2824034 L22.8197575,43.2205104 L30.1801535,44.655837 L30.1801535,19.71773 C30.1801535,11.9204152 36.4843243,6.83304133 44.2594684,8.34595315 C52.0346124,9.85886498 58.3498432,17.4234241 58.3498432,25.2207389 L58.3498432,25.2207389 L58.3498432,50.1588459 L65.7103248,51.5941725 L65.7103248,26.6560655 C65.743419,14.7799848 56.1378534,3.28074652 44.2815883,0.95873167 Z"></path>
                        <path fill-rule="nonzero" fill="url(#linearGradient-6)" id="路径" d="M59.7986965,38.6762331 L33.8078167,34.7470958 L21.0888755,26.6560655 L12.561655,31.83765 C12.4033285,31.9067692 12.254621,31.9961845 12.119257,32.1036564 L12.0639573,32.1369073 L12.0639573,32.1369073 C11.5610162,32.5411232 11.2697998,33.1533734 11.273142,33.7994477 L11.273142,83.7698724 C11.273142,84.3322888 11.4964891,84.8715895 11.8938472,85.2687577 C12.2912053,85.6659259 12.829937,85.8883129 13.3911512,85.8868479 L59.7544567,85.8868479 C60.9211307,85.8868479 61.866978,84.9390417 61.866978,83.7698724 L61.866978,40.8153685 C61.8762885,39.655888 60.9554219,38.7034422 59.7986965,38.6762331 L59.7986965,38.6762331 Z"></path>
                        <path fill-rule="nonzero" fill="url(#linearGradient-7)" id="路径" d="M73.6678723,85.8702152 L22.5819686,85.8702152 C21.2952863,85.8702152 20.2513684,84.8265474 20.2483194,83.5371167 L20.2483194,28.4737764 C20.2513684,27.1843458 21.2952863,26.140678 22.5819686,26.140678 L73.6678723,33.8714911 C74.9523956,33.874538 75.9929512,34.917319 75.9959915,36.2045896 L75.9959915,83.5315749 C75.9959915,84.8210092 74.9545511,85.8671597 73.6678723,85.8702152 Z"></path>
                        <path fill-rule="nonzero" fill="#C4C6CC" id="路径" d="M55.7673451,55.8558179 L55.7673451,42.7660827 C55.7367593,41.9874058 55.183794,41.3283574 54.4235613,41.164502 L49.4465844,40.1946867 C49.1131677,40.106711 48.7578762,40.184684 48.4916667,40.4042551 C48.2254572,40.6238262 48.0807737,40.9582352 48.1028006,41.303047 L48.1028006,54.3927823 C45.3378134,55.2573034 43.4078523,57.7677395 43.4078523,61.103904 C43.4078523,65.8199771 47.2235346,70.3864216 51.9350729,71.3008189 C56.6466111,72.2152161 60.4567754,69.1395163 60.4567754,64.4234432 C60.4622934,61.0595696 58.5489223,57.8065321 55.7673451,55.8558179 Z"></path>
                        <path fill-rule="nonzero" fill="#B5B7BA" id="路径" d="M55.5350862,41.6632641 C55.302342,41.4104304 54.9970702,41.2361695 54.6613502,41.164502 L49.6843733,40.1946867 C49.3514538,40.106216 48.9963931,40.1841887 48.7309009,40.404073 C48.4654087,40.6239573 48.3221211,40.9587236 48.3461195,41.303047 L48.3461195,43.902152 L55.5350862,41.6632641 Z"></path>
                        <ellipse ry="14.4419349" rx="14.4111133" cy="81.9189107" cx="15.3045223" fill-rule="nonzero" fill="#D1D3D8" id="椭圆形"></ellipse>
                        <path fill-rule="nonzero" fill="#FFFFFF" id="路径" d="M18.4676677,81.6529042 L22.4492492,77.6628071 C22.8294907,77.2823379 23.0431574,76.7659594 23.0431574,76.2274805 C23.0431574,75.6890016 22.8294907,75.1726231 22.4492492,74.7921539 L22.4492492,74.7921539 C22.069592,74.4110991 21.5543156,74.1969755 21.0169859,74.1969755 C20.4796562,74.1969755 19.9643797,74.4110991 19.5847225,74.7921539 L15.6031409,78.782251 C15.5345509,78.8519731 15.4409308,78.8912265 15.3432321,78.8912265 C15.2455334,78.8912265 15.1519133,78.8519731 15.0833233,78.782251 L11.1017417,74.7921539 C10.3079262,74.0009962 9.02550055,74.0009962 8.23168502,74.7921539 L8.23168502,74.7921539 C7.85144352,75.1726231 7.63777689,75.6890016 7.63777689,76.2274805 C7.63777689,76.7659594 7.85144352,77.2823379 8.23168502,77.6628071 L12.2132666,81.6529042 C12.2828399,81.7216409 12.3220095,81.8154613 12.3220095,81.9133689 C12.3220095,82.0112765 12.2828399,82.1050969 12.2132666,82.1738336 L8.23168502,86.1639307 C7.44221577,86.959444 7.44221577,88.2446124 8.23168502,89.0401257 L8.23168502,89.0401257 C9.02550055,89.8312834 10.3079262,89.8312834 11.1017417,89.0401257 L15.0833233,85.0500286 C15.1519133,84.9803065 15.2455334,84.9410531 15.3432321,84.9410531 C15.4409308,84.9410531 15.5345509,84.9803065 15.6031409,85.0500286 L19.5847225,89.0401257 C19.9643797,89.4211804 20.4796562,89.635304 21.0169859,89.635304 C21.5543156,89.635304 22.069592,89.4211804 22.4492492,89.0401257 L22.4492492,89.0401257 C23.2387185,88.2446124 23.2387185,86.959444 22.4492492,86.1639307 L18.4676677,82.1738336 C18.3980944,82.1050969 18.3589248,82.0112765 18.3589248,81.9133689 C18.3589248,81.8154613 18.3980944,81.7216409 18.4676677,81.6529042 L18.4676677,81.6529042 Z"></path>
                        <path fill-rule="nonzero" fill="#FCD9CB" id="路径" d="M78.2577511,54.5036184 C77.3528763,56.419864 76.8056093,58.4858956 76.6429986,60.5996001 C76.6429986,60.5996001 76.0568213,59.651952 72.9268557,58.6544277 C72.8757155,58.3573607 72.7325404,58.0839706 72.5176376,57.8730337 C72.3178816,57.5176596 71.9166149,57.3266746 71.515544,57.3960822 C71.114473,57.4654897 70.8003594,57.7802751 70.7311,58.1822038 C70.6618407,58.5841325 70.852418,58.9862575 71.2070337,59.1864407 C71.4199302,59.4055821 71.6968869,59.5511498 71.99782,59.6020758 C72.8604961,60.3280518 73.9941408,61.8797562 77.0688066,62.7553609 C77.0688066,62.7553609 77.5222645,63.2042468 77.8264131,62.3785184 C77.8264131,62.3785184 79.5904749,60.9210246 80.436561,55.0688821 L78.2577511,54.5036184 Z"></path>
                        <path fill-rule="nonzero" fill="#FCD9CB" id="路径" d="M84.0918741,54.8084174 C84.1331312,56.935601 84.5623156,59.0372802 85.3582382,61.0096934 C83.3683766,60.9388458 81.3770556,61.1006496 79.4245757,61.4918301 L79.3139762,62.4561036 C81.7172495,63.1241949 84.2423739,63.224733 86.6909621,62.7498191 C86.6909621,62.7498191 87.2992593,62.9493239 87.2052497,62.0737193 C87.2052497,62.0737193 88.1398154,59.9844601 86.3038639,54.3706151 L84.0918741,54.8084174 Z"></path>
                        <polygon points="81.5978556 53.5116359 81.5978556 50.9291564 83.4503971 50.9291564 83.6328862 53.5116359" fill-rule="nonzero" fill="#FCD9CB" id="路径"></polygon>
                        <path fill-rule="nonzero" fill="#333333" id="路径" d="M77.2678857,86.2193487 C77.2678857,86.2193487 74.8899967,86.0974291 76.759128,87.244582 C76.759128,87.244582 79.5241152,88.9957913 80.6301101,87.9095982 C80.8662216,87.4623389 80.8186022,86.9178833 80.5084507,86.518606 C79.4393674,86.321928 78.3548311,86.2217741 77.2678857,86.2193487 Z"></path>
                        <path fill-rule="nonzero" fill="#333333" id="路径" d="M82.7868001,85.8646734 C82.7868001,85.8646734 80.431031,85.5099981 82.1785029,86.8400305 C82.1785029,86.8400305 84.766531,88.8572462 85.9554755,87.887431 C86.2311599,87.4629108 86.2311599,86.9154172 85.9554755,86.490897 C84.9198983,86.1882899 83.8594834,85.9787207 82.7868001,85.8646734 L82.7868001,85.8646734 Z"></path>
                        <path fill-rule="nonzero" fill="#666666" id="路径" d="M80.0273429,65.404342 C80.0273429,65.404342 78.4457702,66.3021139 78.6890891,69.0397639 L78.6890891,86.518606 L80.5250406,86.518606 C80.5250406,86.518606 80.8015393,77.2250048 82.3499322,71.2952771 C82.3499322,71.2952771 83.6605361,76.3660255 83.5997064,86.518606 C84.3480026,86.8600587 85.2071793,86.8600587 85.9554755,86.518606 C85.9554755,86.518606 86.6135424,72.3759284 85.833816,66.5182441 L80.0273429,65.404342 Z"></path>
                        <ellipse ry="2.46745632" rx="2.8804709" cy="49.1773003" cx="82.7156463" transform="translate(82.715646, 49.177300) rotate(-63.010000) translate(-82.715646, -49.177300)" fill-rule="nonzero" fill="#FCD9CB" id="椭圆形"></ellipse>
                        <path fill-rule="nonzero" fill="#666666" id="路径" d="M84.9545501,46.3460865 C84.9545501,46.3460865 83.2623779,45.1435155 81.9351841,46.1576652 C81.9351841,46.1576652 81.0337982,46.7118454 80.8900189,46.2130832 C80.8900189,46.2130832 79.9333333,46.9002666 81.3324169,47.7481623 C81.6090178,47.921764 81.9412419,47.9831984 82.2614526,47.9199581 C82.2614526,47.9199581 83.1241286,47.8146639 82.6430208,48.7567701 C82.6430208,48.7567701 82.3554621,49.5270806 81.6918652,49.4938297 C81.6918652,49.4938297 80.9895584,50.0147591 82.2061528,51.4168349 C82.2061528,51.4168349 84.2080036,52.5251952 85.9388856,49.5935822 C85.9388856,49.5935822 86.923221,47.7924967 84.9545501,46.3460865 Z"></path>
                        <path fill-rule="nonzero" fill="url(#linearGradient-8)" id="路径" d="M86.5527127,56.6538374 L87.0504104,56.4432489 C86.912161,53.4063416 84.4457925,52.9962483 84.4457925,52.9962483 C83.2571401,53.2672954 82.0248341,53.28429 80.8291892,53.0461245 C80.8291892,53.0461245 78.064202,52.7524091 77.2955355,57.0971815 L79.0595974,57.6901543 C79.0384812,59.855706 78.8629179,62.0169749 78.5342498,64.1574367 C78.5342498,64.1574367 77.8983027,66.1524852 79.0595974,66.5182441 C79.0595974,66.5182441 83.240258,67.6266045 85.833816,66.5182441 C85.833816,66.5182441 86.6743721,66.1524852 86.4365832,64.3015235 C86.213627,61.904516 86.2284461,59.4912576 86.480823,57.0971815 C86.480823,57.0971815 86.491883,56.9309274 86.5527127,56.6538374 Z"></path>
                    </g>
                </g>
            </g>
        </g>
    </g>
</svg>