<svg xmlns:xlink="http://www.w3.org/1999/xlink" xmlns="http://www.w3.org/2000/svg" version="1.1" viewBox="0 0 120 120" height="120px" width="120px">
    <title>暂无内容</title>
    <defs>
        <rect height="120" width="120" y="0" x="0" id="path-1"></rect>
        <linearGradient id="linearGradient-3" y2="0.0476319357%" x2="50.0274721%" y1="99.9995242%" x1="50.0274721%">
            <stop offset="0%" stop-opacity="0" stop-color="#FFFFFF"></stop>
            <stop offset="9%" stop-opacity="0.19" stop-color="#F9F9FA"></stop>
            <stop offset="22%" stop-opacity="0.4" stop-color="#F2F3F5"></stop>
            <stop offset="34%" stop-opacity="0.59" stop-color="#ECEDF0"></stop>
            <stop offset="47%" stop-opacity="0.74" stop-color="#E7E9ED"></stop>
            <stop offset="59%" stop-opacity="0.85" stop-color="#E4E5EA"></stop>
            <stop offset="72%" stop-opacity="0.93" stop-color="#E1E3E8"></stop>
            <stop offset="86%" stop-opacity="0.98" stop-color="#E0E1E6"></stop>
            <stop offset="100%" stop-color="#DFE1E6"></stop>
        </linearGradient>
        <linearGradient id="linearGradient-4" y2="3.44169138e-13%" x2="50%" y1="100%" x1="49.9999926%">
            <stop offset="0%" stop-opacity="0" stop-color="#FFFFFF"></stop>
            <stop offset="41%" stop-opacity="0.14" stop-color="#FBFBFC"></stop>
            <stop offset="66%" stop-opacity="0.48" stop-color="#F0F1F3"></stop>
            <stop offset="100%" stop-color="#DFE1E6"></stop>
        </linearGradient>
        <linearGradient id="linearGradient-5" y2="50%" x2="0%" y1="50%" x1="99.9871564%">
            <stop offset="27%" stop-color="#E9EBF0"></stop>
            <stop offset="89%" stop-color="#CACCD2"></stop>
            <stop offset="100%" stop-color="#C4C6CC"></stop>
        </linearGradient>
        <linearGradient id="linearGradient-6" y2="50%" x2="100%" y1="50%" x1="0%">
            <stop offset="27%" stop-color="#FFFFFF"></stop>
            <stop offset="67%" stop-color="#E5E5E5"></stop>
            <stop offset="100%" stop-color="#E5E5E5"></stop>
        </linearGradient>
        <linearGradient id="linearGradient-7" y2="50%" x2="0%" y1="50%" x1="100%">
            <stop offset="0%" stop-color="#DFE1E6"></stop>
            <stop offset="100%" stop-color="#D1D3D8"></stop>
        </linearGradient>
        <linearGradient id="linearGradient-8" y2="49.9903865%" x2="0%" y1="49.9903865%" x1="100%">
            <stop offset="27%" stop-color="#FFFFFF"></stop>
            <stop offset="67%" stop-color="#E5E5E5"></stop>
            <stop offset="100%" stop-color="#E5E5E5"></stop>
        </linearGradient>
        <linearGradient id="linearGradient-9" y2="50.0206526%" x2="100%" y1="50.0206526%" x1="0%">
            <stop offset="27%" stop-color="#DFE1E6"></stop>
            <stop offset="100%" stop-color="#C4C6CC"></stop>
        </linearGradient>
        <linearGradient id="linearGradient-10" y2="55.8799052%" x2="59.0651715%" y1="41.0377057%" x1="29.3327412%">
            <stop offset="27%" stop-color="#E5E5E5"></stop>
            <stop offset="88%" stop-color="#C6C7CE"></stop>
            <stop offset="89%" stop-color="#C6C7CE"></stop>
            <stop offset="100%" stop-color="#C6C7CE"></stop>
        </linearGradient>
        <linearGradient id="linearGradient-11" y2="49.9458369%" x2="100%" y1="49.9458369%" x1="-0.0504286435%">
            <stop offset="0%" stop-color="#FDB65B"></stop>
            <stop offset="100%" stop-color="#FD9357"></stop>
        </linearGradient>
    </defs>
    <g fill-rule="evenodd" fill="none" stroke-width="1" stroke="none" id="暂无内容">
        <g id="分组-2-copy-2">
            <mask fill="white" id="mask-2">
                <use xlink:href="#path-1"></use>
            </mask>
            <g fill-rule="nonzero" id="Mask"></g>
            <g mask="url(#mask-2)" id="分组-24-copy">
                <g transform="translate(0.000000, 21.000000)">
                    <path fill-rule="nonzero" fill="url(#linearGradient-3)" id="路径" d="M111.29863,2.7332093 C110.795597,2.73321523 110.298471,2.84178764 109.841096,3.05153488 C108.889838,1.04737344 106.681802,-0.0321019374 104.519137,0.449710248 C102.356472,0.931522433 100.813433,2.84668613 100.8,5.06576744 C99.8629489,4.52303851 98.6868329,4.62660768 97.8587009,5.32477921 C97.030569,6.02295075 96.7279828,7.16602818 97.1019758,8.18345341 C97.4759688,9.20087864 98.4463523,9.87450333 99.5287671,9.86813838 L111.29863,9.86813838 C113.265672,9.86813838 114.860274,8.2708949 114.860274,6.30065116 C114.860274,4.33040743 113.265672,2.7332093 111.29863,2.7332093 L111.29863,2.7332093 Z"></path>
                    <ellipse ry="26" rx="60" cy="91" cx="60" fill-rule="nonzero" fill="url(#linearGradient-4)" id="椭圆形"></ellipse>
                    <g transform="translate(0.000000, 10.000000)" fill-rule="evenodd" fill="none" stroke-width="1" id="分组-45">
                        <polygon points="105.120453 6.41932951 60.9863014 15.400302 61.3604157 75.7467351 105.120453 63.5440169" fill-rule="nonzero" fill="url(#linearGradient-5)" id="路径"></polygon>
                        <polygon points="90.0481814 46.6141709 90.0481814 63.7607007 104.933396 59.6209 104.933396 42.4743703" fill-rule="nonzero" fill="#D1D3D8" id="路径"></polygon>
                        <polygon points="105.120453 6.41932951 119.059046 26.7819027 76.2626358 39.7202054 60.9863014 15.400302" fill-rule="nonzero" fill="url(#linearGradient-6)" id="路径"></polygon>
                        <polygon points="11.8412848 9.55554213 60.9863014 15.400302 61.3604157 75.7467351 12.2437411 64.9524615" fill-rule="nonzero" fill="url(#linearGradient-7)" id="路径"></polygon>
                        <polygon points="11.8412848 9.55554213 0.810581011 30.0036484 50.5054322 39.2127092 60.9863014 15.400302" fill-rule="nonzero" fill="url(#linearGradient-8)" id="路径"></polygon>
                        <polygon points="54.1445442 0.768444579 54.0651866 14.5734823 11.8412848 9.55554213" fill-rule="nonzero" fill="url(#linearGradient-9)" id="路径"></polygon>
                        <polygon points="105.120453 6.41932951 60.9863014 15.400302 54.0651866 14.5734823 54.1445442 0.768444579" fill-rule="nonzero" fill="url(#linearGradient-10)" id="路径"></polygon>
                        <path fill-rule="nonzero" fill="#333333" id="路径" d="M42.5186585,75.1765146 L40.5857345,77.1722863 C40.5857345,77.1722863 39.582428,78.3697493 41.7194143,77.970595 C41.7194143,77.970595 44.2645253,77.4003745 43.918753,76.2143159 L43.6523382,75.1765146 L42.5186585,75.1765146 Z"></path>
                        <path fill-rule="nonzero" fill="#333333" id="路径" d="M44.559282,76.2314225 L42.5753425,78.4666868 C42.5753425,78.4666868 41.4700047,79.8238115 43.9584317,79.3733374 C43.9584317,79.3733374 45.6986301,78.6776684 46.2257912,77.5600362 C46.3357515,77.0501645 46.2198982,76.5173911 45.9083609,76.1002718 L44.559282,76.2314225 Z"></path>
                        <path fill-rule="nonzero" fill="#666666" id="路径" d="M39.8885215,57.003588 C39.4160983,60.5946766 39.3097356,64.2249324 39.5710912,67.8377771 C39.5694553,68.4377864 39.6770391,69.0330267 39.8885215,69.5940562 L42.2182333,75.4559227 L43.4369391,75.4559227 L42.4279641,69.4914165 C42.4279641,69.4914165 41.8611242,66.6403141 42.8020784,61.2289218 C42.8020784,61.2289218 43.6466698,60.4306131 43.7033538,61.6565871 C43.6335485,66.6743074 43.8625841,71.691729 44.38923,76.6818967 L45.8743505,76.6818967 L47.0080302,57.5509997 L39.8885215,57.003588 Z"></path>
                        <path fill-rule="nonzero" fill="#FCD9CB" id="路径" d="M49.1676901,45.9698218 L50.4374114,47.4637995 C50.4374114,47.4637995 50.6528106,48.2107883 51.3386868,47.4637995 L53.9914974,45.0688735 C53.9914974,45.0688735 54.6263581,44.2135427 55.8960794,45.0688735 L56.8823807,45.5991785 C56.8823807,45.5991785 57.7496457,46.1351857 56.1624941,45.9698218 C56.1624941,45.9698218 54.8077468,45.5193476 54.3316013,46.1351857 L51.2366556,50.20656 C51.0720549,50.3933816 50.8357835,50.5003218 50.587624,50.5003218 C50.3394645,50.5003218 50.103193,50.3933816 49.9385923,50.20656 L47.8242796,47.4352884 L49.1676901,45.9698218 Z"></path>
                        <path fill-rule="nonzero" fill="#FCD9CB" id="路径" d="M38.9985829,46.6940018 L37.8649032,47.9998067 C37.7509291,48.1177619 37.5852625,48.1695147 37.4249172,48.1372543 C37.2645719,48.104994 37.1314358,47.9931244 37.0713274,47.840145 L35.217761,45.5592631 C35.0548601,45.2192668 34.6849701,45.0320487 34.3164856,45.1030867 L32.2475201,45.2399396 C32.2475201,45.2399396 31.4822863,45.530752 32.8880491,45.8101601 C33.545506,45.8318977 34.1631866,46.1322238 34.5885687,46.6369798 L36.9976382,50.1780489 C36.9976382,50.1780489 37.564478,51.0561885 38.2957015,50.4175415 L40.5630609,47.6234612 L38.9985829,46.6940018 Z"></path>
                        <ellipse ry="2.71995168" rx="2.22768068" cy="39.4179885" cx="43.1705243" fill-rule="nonzero" fill="#FCD9CB" id="椭圆形"></ellipse>
                        <rect height="3.63800664" width="1.75720359" y="40.5470251" x="43.1705243" fill-rule="nonzero" fill="#FCD9CB" id="矩形"></rect>
                        <path fill-rule="nonzero" fill="#666666" id="路径" d="M39.8885215,36.8348898 C39.8885215,36.8348898 40.6820973,37.4051102 41.7931034,36.5155663 C42.6377472,35.810083 43.802608,35.6364003 44.8143599,36.0650921 C45.6937174,36.742953 46.1990483,37.8020043 46.1747756,38.9161945 C46.1450838,39.8592693 45.5412194,40.6866014 44.6556448,40.9974992 C45.0443827,40.4842939 45.2025848,39.8311766 45.0921115,39.1956025 C44.9315593,39.0344347 44.6773281,39.0173849 44.4969296,39.1556871 C44.4969296,39.1556871 45.0184223,37.4450257 42.8700992,37.5989852 C42.881436,37.593283 40.137931,38.4315071 39.8885215,36.8348898 Z"></path>
                        <path fill-rule="nonzero" fill="url(#linearGradient-11)" id="路径" d="M42.7567312,43.1586349 C43.1067715,43.4972373 43.584017,43.6691403 44.0681527,43.6310065 C44.5522885,43.5928727 44.9971206,43.3483407 45.2905054,42.9590577 C46.3858222,42.5607281 47.6095584,42.9742234 48.2437411,43.9569435 L49.6721776,45.8386711 C49.6721776,45.8386711 49.2357109,47.5493325 47.971658,47.7945273 L47.2120926,47.115965 L47.4728389,57.5795107 C47.4841986,58.0951419 47.0987998,58.532544 46.5885687,58.5830988 C45.1147851,58.7313561 42.1218706,58.8796134 39.9168635,57.9615584 C39.5106776,57.7934027 39.2651896,57.3740502 39.3160132,56.9351616 L40.3419934,47.9941045 L38.431743,46.6369798 L40.1322626,43.9569435 C40.6672861,43.0443593 41.8086911,42.6971677 42.7567312,43.1586349 L42.7567312,43.1586349 Z"></path>
                    </g>
                </g>
            </g>
        </g>
    </g>
</svg>