<svg xmlns:xlink="http://www.w3.org/1999/xlink" xmlns="http://www.w3.org/2000/svg" version="1.1" viewBox="0 0 120 120" height="120px" width="120px">
    <title>服务器异常</title>
    <defs>
        <rect height="120" width="120" y="0" x="0" id="path-1"></rect>
        <linearGradient id="linearGradient-3" y2="3.44169138e-13%" x2="50%" y1="100%" x1="49.9999926%">
            <stop offset="0%" stop-opacity="0" stop-color="#FFFFFF"></stop>
            <stop offset="41%" stop-opacity="0.14" stop-color="#FBFBFC"></stop>
            <stop offset="66%" stop-opacity="0.48" stop-color="#F0F1F3"></stop>
            <stop offset="100%" stop-color="#DFE1E6"></stop>
        </linearGradient>
        <linearGradient id="linearGradient-4" y2="50%" x2="100%" y1="50%" x1="0%">
            <stop offset="27%" stop-color="#DFE1E6"></stop>
            <stop offset="89%" stop-color="#D1D3D8"></stop>
            <stop offset="100%" stop-color="#C4C6CC"></stop>
        </linearGradient>
        <linearGradient id="linearGradient-5" y2="100.057471%" x2="50%" y1="0%" x1="50%">
            <stop offset="0%" stop-color="#FFFFFF"></stop>
            <stop offset="100%" stop-color="#E9EBF0"></stop>
        </linearGradient>
        <linearGradient id="linearGradient-6" y2="50%" x2="100%" y1="50%" x1="0%">
            <stop offset="0%" stop-color="#E9EBF0"></stop>
            <stop offset="100%" stop-color="#DFE1E6"></stop>
        </linearGradient>
        <linearGradient id="linearGradient-7" y2="50.019802%" x2="100%" y1="50.019802%" x1="0%">
            <stop offset="0%" stop-color="#E9EBF0"></stop>
            <stop offset="100%" stop-color="#DFE1E6"></stop>
        </linearGradient>
        <linearGradient id="linearGradient-8" y2="50.0307692%" x2="100%" y1="50.0307692%" x1="0%">
            <stop offset="0%" stop-color="#E9EBF0"></stop>
            <stop offset="100%" stop-color="#DFE1E6"></stop>
        </linearGradient>
        <linearGradient id="linearGradient-9" y2="83.7255849%" x2="100.489149%" y1="47.1898372%" x1="21.2742548%">
            <stop offset="27%" stop-color="#DFE1E6"></stop>
            <stop offset="89%" stop-color="#D1D3D8"></stop>
            <stop offset="100%" stop-color="#C4C6CC"></stop>
        </linearGradient>
        <linearGradient id="linearGradient-10" y2="50.0576574%" x2="100.02592%" y1="50.0576574%" x1="-1.47396378e-12%">
            <stop offset="0%" stop-color="#FDB65B"></stop>
            <stop offset="100%" stop-color="#FD9357"></stop>
        </linearGradient>
    </defs>
    <g fill-rule="evenodd" fill="none" stroke-width="1" stroke="none" id="服务器异常">
        <g id="分组-copy">
            <mask fill="white" id="mask-2">
                <use xlink:href="#path-1"></use>
            </mask>
            <g fill-rule="nonzero" id="Mask"></g>
            <g mask="url(#mask-2)" id="分组-11-copy">
                <g transform="translate(-1.000000, 13.000000)">
                    <ellipse ry="21" rx="60" cy="103.992489" cx="61.0273973" fill-rule="nonzero" fill="url(#linearGradient-3)" id="椭圆形"></ellipse>
                    <g fill-rule="evenodd" fill="none" stroke-width="1" id="分组-36">
                        <rect height="73.7199571" width="54.5058317" y="15.0307427" x="54.5831703" fill-rule="nonzero" fill="#EEEEF0" id="矩形"></rect>
                        <rect height="2.27505132" width="48.3544423" y="88.7506998" x="56.9568689" fill-rule="nonzero" fill="#EEEEF0" id="矩形"></rect>
                        <rect height="79.2002239" width="58.5631311" y="9.45568203" x="44.7730724" fill-rule="nonzero" fill="#DADBDE" id="矩形"></rect>
                        <rect height="2.44094047" width="51.9536595" y="88.655906" x="47.3311937" fill-rule="nonzero" fill="#DADBDE" id="矩形"></rect>
                        <rect height="88.2767307" width="65.2737378" y="0.100718418" x="26.4378865" fill-rule="nonzero" fill="url(#linearGradient-4)" id="矩形"></rect>
                        <rect height="70.6984046" width="52.976908" y="9.14167755" x="32.4286497" fill-rule="nonzero" fill="#FFFFFF" id="矩形"></rect>
                        <rect height="1" width="65.2737378" y="3.61401381" x="26.4378865" fill-rule="nonzero" fill="#BBBDC4" id="矩形"></rect>
                        <rect height="2.72532189" width="57.9027789" y="88.3774492" x="29.2815656" fill-rule="nonzero" fill="#B5B7BA" id="矩形"></rect>
                        <rect height="10.3088263" width="1.18982387" y="34.5167942" x="28.6866536" fill-rule="nonzero" fill="url(#linearGradient-5)" id="矩形"></rect>
                        <rect height="16.5296697" width="52.976908" y="9.14167755" x="32.4286497" fill-rule="nonzero" fill="url(#linearGradient-6)" id="矩形"></rect>
                        <rect height="14.9596473" width="52.976908" y="64.8804348" x="32.4286497" fill-rule="nonzero" fill="url(#linearGradient-7)" id="矩形"></rect>
                        <rect height="9.6274958" width="52.976908" y="32.8993749" x="32.4286497" fill-rule="nonzero" fill="url(#linearGradient-8)" id="矩形"></rect>
                        <rect height="1" width="52.976908" y="32.3069136" x="32.4286497" fill-rule="nonzero" fill="#BBBDC4" id="矩形"></rect>
                        <rect height="9.6274958" width="52.976908" y="44.7782235" x="32.4286497" fill-rule="nonzero" fill="url(#linearGradient-8)" id="矩形"></rect>
                        <rect height="1" width="52.976908" y="44.1857623" x="32.4286497" fill-rule="nonzero" fill="#BBBDC4" id="矩形"></rect>
                        <rect height="37.0525285" width="52.976908" y="25.6713473" x="32.4286497" fill-rule="nonzero" fill="#FFFFFF" id="矩形"></rect>
                        <path fill-rule="nonzero" fill="url(#linearGradient-9)" id="路径" d="M74.8637182,55.5669435 L60.2705284,30.6835697 C59.9629713,30.155433 59.3962999,29.8303437 58.7832485,29.8303437 C58.1701972,29.8303437 57.6035257,30.155433 57.2959687,30.6835697 L42.9050489,55.7683803 C42.669828,56.1663716 42.6053905,56.6419085 42.7262673,57.0877559 C42.847144,57.5336034 43.1431568,57.9122196 43.5475538,58.1382254 C43.8106288,58.286489 44.1078977,58.364073 44.4101761,58.3633656 L73.3942857,58.1974715 C74.0206195,58.1954922 74.5963191,57.8544652 74.8970219,57.3072963 C75.1977247,56.7601273 75.1758495,56.0933966 74.8399217,55.5669435 L74.8637182,55.5669435 Z"></path>
                        <path fill-rule="nonzero" fill="#FFFFFF" id="形状" d="M60.1277495,51.2834484 C60.1277495,51.9476793 59.5870567,52.4861448 58.9200783,52.4861448 C58.2530999,52.4861448 57.712407,51.9476793 57.712407,51.2834484 L57.712407,51.2419761 C57.712407,50.5777452 58.2530999,50.0392797 58.9200783,50.0392797 C59.5870567,50.0392797 60.1277495,50.5777452 60.1277495,51.2419761 L60.1277495,51.2834484 Z M60.1277495,46.8933103 C60.1277495,47.547725 59.5950472,48.0782329 58.9379256,48.0782329 C58.2808041,48.0782329 57.7481018,47.547725 57.7481018,46.8933103 L57.7183562,40.5065777 C57.7183562,39.8439829 58.2577172,39.3068436 58.9230528,39.3068436 C59.5883884,39.3068436 60.1277495,39.8439829 60.1277495,40.5065777 L60.1277495,46.8873857 L60.1277495,46.8933103 Z"></path>
                        <path fill-rule="nonzero" fill="#FCD9CB" id="路径" d="M100.498474,61.3849132 C100.498474,61.3849132 92.693229,62.3328513 93.0085323,56.1890278 L91.3308806,56.1890278 C91.3308806,56.1890278 90.5336986,63.5118492 98.6007045,63.5533215 L100.498474,61.3849132 Z"></path>
                        <polygon points="89.2724853 56.3193693 89.2724853 61.3849132 112.521644 60.5791659 112.979726 55.5965665" fill-rule="nonzero" fill="#A09A8D" id="路径"></polygon>
                        <path fill-rule="nonzero" fill="#FCD9CB" id="路径" d="M92.2708415,56.1238571 C92.4353248,55.5316084 92.9688022,55.1157197 93.5855969,55.098899 C93.5855969,55.098899 95.3405871,55.0633514 95.3286888,56.4852584 C95.3286888,56.4852584 95.3286888,57.3206288 94.0436791,57.3206288 C94.0436791,57.3206288 92.895499,57.2021366 92.895499,56.2127263 L92.2708415,56.1238571 Z"></path>
                        <path fill-rule="nonzero" fill="#333333" id="路径" d="M98.2854012,94.331685 C98.2854012,94.331685 94.8408611,94.1539466 94.1210176,95.32702 C94.1210176,95.32702 93.942544,95.9194812 95.4833659,96.0024258 L99.4157339,96.1860888 C99.4157339,96.1860888 99.7905284,96.1386919 99.8143249,95.4158892 C99.8143249,95.4158892 99.8916634,94.4205542 99.4157339,94.0176805 L98.2854012,94.331685 Z"></path>
                        <path fill-rule="nonzero" fill="#333333" id="路径" d="M106.001409,92.572075 L105.733699,93.6562792 C105.733699,93.6562792 103.550372,95.6410244 103.461135,96.9088916 C103.461135,96.9088916 104.686654,97.8153573 108.137143,94.2842881 C108.070231,93.4203691 107.63764,92.6255259 106.947319,92.098106 L106.001409,92.572075 Z"></path>
                        <path fill-rule="nonzero" fill="#666666" id="路径" d="M97.9938943,75.9890838 L95.0193346,81.0724016 C95.0193346,81.0724016 94.3351859,82.2277011 95.0193346,84.1887479 L97.7559295,94.805654 L99.4157339,94.4679511 L97.8689628,83.9991603 C97.8689628,83.9991603 97.3573386,82.6957455 98.4638748,82.1506811 C98.4638748,82.1506811 101.634755,80.6636033 103.770489,76.3267867 L97.9938943,75.9890838 Z"></path>
                        <path fill-rule="nonzero" fill="#666666" id="路径" d="M105.733699,93.6562792 C105.733699,93.6562792 102.943562,87.7316664 99.2491585,83.513342 C99.2491585,83.513342 98.1188258,82.091435 98.8446184,80.8709647 L100.837573,75.4440194 L104.198826,75.1063165 C104.198826,75.1063165 104.472485,78.8328979 102.836477,81.4811999 C102.462196,81.9168943 102.490799,82.5668613 102.901918,82.9682777 C102.901918,82.9682777 105.983562,88.7033029 107.137691,92.7735118 L105.733699,93.6562792 Z"></path>
                        <ellipse ry="2.58785359" rx="3.12821179" cy="56.5720623" cx="101.395724" transform="translate(101.395724, 56.572062) rotate(-87.970000) translate(-101.395724, -56.572062)" fill-rule="nonzero" fill="#FCD9CB" id="椭圆形"></ellipse>
                        <polygon points="101.240903 57.9120798 103.28739 57.9117814 103.286775 62.106429 101.240289 62.1067275" transform="translate(102.263839, 60.009254) rotate(2.030000) translate(-102.263839, -60.009254)" fill-rule="nonzero" fill="#FCD9CB" id="矩形"></polygon>
                        <path fill-rule="nonzero" fill="#666666" id="路径" d="M103.437339,52.7646016 C102.278876,52.2326423 100.919587,52.3855887 99.9095108,53.1615507 L99.7072407,53.2918921 L99.6596477,54.6367792 C100.148843,54.6244011 100.635376,54.5608562 101.111233,54.4471916 C103.615812,54.3464732 102.943562,56.3075201 102.943562,56.3075201 C103.158608,56.1542361 103.454675,56.1847375 103.633659,56.3786154 C103.729815,57.114547 103.514301,57.8571532 103.038748,58.4285314 C104.087761,58.1260761 104.838925,57.2080977 104.924618,56.1238571 C105.002737,54.8306079 104.448786,53.5794213 103.437339,52.7646016 L103.437339,52.7646016 Z"></path>
                        <path fill-rule="nonzero" fill="#DDB300" id="路径" d="M98.475773,54.8737638 C98.475773,54.8737638 94.1686106,55.098899 100.355695,55.8276264 C101.906292,55.9572001 103.466526,55.9154739 105.007906,55.7032096 L98.475773,54.8737638 Z"></path>
                        <path fill-rule="nonzero" fill="#F4DC00" id="路径" d="M98.4579132,55.1818436 C98.4579132,55.1818436 98.4222309,51.6270759 102.182074,51.7870405 C102.182074,51.7870405 105.305362,51.9884773 105.007906,55.7032096 C102.811671,55.7827011 100.6136,55.6077388 98.4579132,55.1818436 L98.4579132,55.1818436 Z"></path>
                        <path fill-rule="nonzero" fill="url(#linearGradient-10)" id="路径" d="M100.409237,60.7983766 C98.2108925,62.0966782 96.8124302,64.4059821 96.6850881,66.9481247 L98.8446184,67.6235305 L97.0063405,76.5104497 L104.585519,77.2332525 C104.585519,77.2332525 107.714755,65.4847453 104.175029,60.4665982 C103.856993,60.2668 103.451969,60.2668 103.133933,60.4665982 C102.532159,60.9260764 101.717135,60.9954496 101.045793,60.6443366 C101.045793,60.6443366 100.813777,60.5495428 100.409237,60.7983766 Z"></path>
                        <path fill-rule="nonzero" fill="#FCD9CB" id="路径" d="M97.3335421,67.1495615 L99.6596477,67.9434596 C99.6596477,67.9434596 96.7862231,74.2946445 92.1518591,75.9653853 L91.1048141,74.8100858 C94.0452698,73.093411 96.2589435,70.3708805 97.3335421,67.1495615 L97.3335421,67.1495615 Z"></path>
                        <path fill-rule="nonzero" fill="#FCD9CB" id="路径" d="M91.7116243,74.6027244 L91.247593,74.5257044 C90.7713238,74.2205606 90.1565587,74.2346349 89.6948728,74.5612521 C89.4048386,74.8357126 89.2539766,75.2254259 89.2839567,75.6227486 C89.3139368,76.0200714 89.5215863,76.3829555 89.8495499,76.6111681 C89.8495499,76.6111681 90.902544,77.1740063 92.098317,76.0720284 C92.098317,76.0720284 92.6813307,75.4143963 91.7116243,74.6027244 Z"></path>
                        <polygon points="21.7380822 62.5461373 17.8473581 75.5506624 17.2821918 60.6976581" fill-rule="nonzero" fill="#D1D3D8" id="路径"></polygon>
                        <polygon points="11.4580039 55.9638925 15.6164384 76.3208621 2.59976517 60.1407445" fill-rule="nonzero" fill="#D1D3D8" id="路径"></polygon>
                        <polygon points="2.11193738 69.1757791 14.8252055 76.8718511 0.154677104 73.660711" fill-rule="nonzero" fill="#D1D3D8" id="路径"></polygon>
                        <path fill-rule="nonzero" fill="#CCCCCC" id="路径" d="M40.0792172,99.5334951 L35.2009393,99.5334951 L35.2009393,98.3485725 L40.0792172,98.3485725 C41.6854795,98.3485725 45.0050881,97.8923773 45.0050881,96.4823195 C45.0050881,95.0722616 41.6973777,94.6338403 40.0792172,94.6338403 L28.6866536,94.6338403 C25.4839705,94.5424785 22.2915266,94.2296963 19.1323679,93.6977514 C12.5347945,92.5128289 9.18544031,90.4629129 9.18544031,87.5894756 C9.18544031,85.1722336 11.3390215,83.3652267 15.5866928,82.2158518 L15.896047,83.3593021 C12.2313894,84.3487124 10.3752642,85.7706195 10.3752642,87.5894756 C10.3752642,92.1395783 23.6001566,93.3600485 28.6985519,93.4489177 L40.0792172,93.4489177 C40.7098239,93.4489177 46.1949119,93.5377869 46.1949119,96.5060179 C46.1949119,99.4742489 40.715773,99.5334951 40.0792172,99.5334951 Z"></path>
                        <path fill-rule="nonzero" fill="#CCCCCC" id="路径" d="M20.084227,82.5298563 L19.9236008,81.3449338 C22.0934488,81.0574225 24.2787976,80.9011213 26.4676321,80.8768893 L26.4676321,82.0618119 C24.3323421,82.0904596 22.2007053,82.2467556 20.084227,82.5298563 L20.084227,82.5298563 Z"></path>
                    </g>
                </g>
            </g>
        </g>
    </g>
</svg>